PathFileType	4	(X/Y/Z)	/Users/visionmauri/4_3_2_f_1_Sports2D/4_3_2_f_1_Sports2D_m_person00.trc
DataRate	CameraRate	NumFrames	NumMarkers	Units	OrigDataRate	OrigDataStartFrame	OrigNumFrames
30.0	30.0	5	22	m	30.0	0	360
Frame#	Time	Hip			RHip			RKnee			RAnkle			RBigToe			RSmallToe			RHeel			LHip			LKnee			LAnkle			LBigToe			LSmallToe			LHeel			Neck			Head			Nose			RShoulder			RElbow			RWrist			LShoulder			LElbow			LWrist			
		X1	Y1	Z1	X2	Y2	Z2	X3	Y3	Z3	X4	Y4	Z4	X5	Y5	Z5	X6	Y6	Z6	X7	Y7	Z7	X8	Y8	Z8	X9	Y9	Z9	X10	Y10	Z10	X11	Y11	Z11	X12	Y12	Z12	X13	Y13	Z13	X14	Y14	Z14	X15	Y15	Z15	X16	Y16	Z16	X17	Y17	Z17	X18	Y18	Z18	X19	Y19	Z19	X20	Y20	Z20	X21	Y21	Z21	X22	Y22	Z22
0	0.0	1.1711702930043892	0.8743697689859413	0.0301	1.2938816920002312	0.8351273371009359	0.0301	1.2635149557503709	0.434075623996672	0.129	1.2403790760890303	-0.08040872758999947	0.023	1.2495655527416976	-0.19031490933407585	0.2179	1.2945864500473685	-0.21151078915880916	0.1804	1.2613671874026902	-0.2125755258841029	-0.0119	1.0437287437974876	0.8674073145155315	0.0301	0.888840626262398	0.3865852146436427	0.129	0.9621171335666698	-0.1253393736645495	0.023	0.7700017189340066	-0.2721058673192095	0.2179	0.7690071823006303	-0.2759408374363159	0.1804	1.0133963550554326	-0.21397612334478316	-0.0119	1.300976484185925	1.5505753837700653	0.0008	1.353137636981428	1.812230788761916	0.0655	1.3363442435737982	1.656997233443858	0.1076	1.493952820966362	1.4046985297076344	-0.01275	1.550353026173583	1.0142669901201637	0.0702	1.4819138089957133	0.8810130776788195	0.1076	1.0851410517341775	1.533633458632929	-0.01275	0.8623929788103354	1.237490708738507	0.0702	0.692113688457037	0.9883453467602802	0.1076
1	0.033426183844011144	1.1701453438315055	0.8725832402897011	0.0301	1.2927815880131672	0.8357973406900208	0.0301	1.2665612383707594	0.41874899147774525	0.129	1.2431442907261379	-0.08124866677848074	0.023	1.2449999119423847	-0.1999606995636511	0.2179	1.2890114571717315	-0.21839735694942652	0.1804	1.2605880278198436	-0.20981721535303752	-0.0119	1.0430634412234703	0.868240700728326	0.0301	0.8885486219005984	0.3923834141650301	0.129	0.9603558727596868	-0.11610120361012212	0.023	0.7698337250478806	-0.2669378830170746	0.2179	0.7715969445811252	-0.2708870942467597	0.1804	1.0140833709814914	-0.20440808935550706	-0.0119	1.3042275321189787	1.5491916880481829	0.0008	1.3532351173079002	1.8109039411168222	0.0655	1.3347669118788765	1.655593171407954	0.1076	1.4965116425898772	1.4049198110234447	-0.01275	1.5529207061524106	1.0162722483740108	0.0702	1.4824687379705532	0.8833832299227763	0.1076	1.0865223590079824	1.5329045047966379	-0.01275	0.8616156519704674	1.2330374270136246	0.0702	0.6901696783800327	0.9895518251308604	0.1076
2	0.06685236768802229	1.1705488917730642	0.873395526154258	0.0301	1.2921633922043465	0.8393757388281033	0.0301	1.2671906058394566	0.4046683987108185	0.129	1.2469156201863778	-0.08273855587944787	0.023	1.242804694113865	-0.20805446546004086	0.2179	1.2851551900426779	-0.22669238455222945	0.1804	1.2601950007211302	-0.21184035881493965	-0.0119	1.0427034492131453	0.873531318179522	0.0301	0.8858047654595324	0.40206384759375025	0.129	0.9564081241008179	-0.09919514492982787	0.023	0.7683678373220894	-0.253024850228247	0.2179	0.7738644280201387	-0.25689745143656567	0.1804	1.0116730453199643	-0.18595633743482978	-0.0119	1.3083758409514394	1.546731186297512	0.0008	1.35574215778545	1.8086880072643647	0.0655	1.3327774580039056	1.6514037765996372	0.1076	1.4997836760034486	1.4009125463407783	-0.01275	1.5538463928989705	1.0173494487342403	0.0702	1.4831023812296804	0.8848005569262037	0.1076	1.090535303621632	1.5330941606102053	-0.01275	0.8614762124916271	1.231654616800055	0.0702	0.6896635880042797	0.9914955283905063	0.1076
3	0.10027855153203344	1.1716705741483024	0.8778823087592769	0.0301	1.2916189752434002	0.8457054606780623	0.0301	1.2653958446895934	0.40065670300535655	0.129	1.2505369470663037	-0.08518374175243122	0.023	1.244772509075281	-0.2125695395021313	0.2179	1.2867151459326946	-0.22942699641728004	0.1804	1.2597896341402948	-0.2156803118404159	-0.0119	1.042427237382058	0.8825895232355702	0.0301	0.8812857429305195	0.41501393491929517	0.129	0.950011814114862	-0.07631863706319464	0.023	0.766075544439303	-0.2279199858491707	0.2179	0.7743369706292633	-0.23202023573907476	0.1804	1.0047185518953508	-0.16058528532262284	-0.0119	1.3117306184520507	1.5435997784178288	0.0008	1.3612105124733045	1.8047874853185144	0.0655	1.3345418303469405	1.644683022435818	0.1076	1.5027552075645216	1.3943880786271574	-0.01275	1.5518773712588065	1.0169968352129533	0.0702	1.4827669872086688	0.8850879653870899	0.1076	1.0961802786131565	1.5331885729888695	-0.01275	0.8620391620081884	1.2337632467044481	0.0702	0.6907933512125449	0.9928487158960189	0.1076
4	0.13370473537604458	1.1705962055443013	0.8832876295545712	0.0301	1.2898256458082789	0.8509295337833367	0.0301	1.2642515331336244	0.40923191365958195	0.129	1.2529726443751494	-0.08745242884467964	0.023	1.2508176883628075	-0.21295254255473417	0.2179	1.2932870289807799	-0.22086990595367775	0.1804	1.2598165978970917	-0.20979791248404162	-0.0119	1.0413759162691336	0.8895296206437997	0.0301	0.8780258513134888	0.4279752616788769	0.129	0.9418678944043112	-0.05615591891451056	0.023	0.7643036481505836	-0.19216762179059682	0.2179	0.7726815970890031	-0.19848525346899268	0.1804	0.9949477245342555	-0.1376558155481403	-0.0119	1.3128873727837094	1.5406097027510255	0.0008	1.3671007213845185	1.7986126433602334	0.0655	1.342077527679348	1.638046987756974	0.1076	1.503993914880093	1.3905931397931048	-0.01275	1.5482045763653163	1.015914441505913	0.0702	1.4794546046487884	0.8849778780961584	0.1076	1.0991700656443362	1.5301946052968298	-0.01275	0.8620001932854557	1.2339693059679593	0.0702	0.6911016801863967	0.9920621987646796	0.1076
